HIERARCHY
ROOT RootJoint
{
    OFFSET   0.000000   0.000000   0.000000
    CHANNELS 6 Xposition Yposition Zposition Xrotation Yrotation Zrotation
    JOINT pelvis_lowerback
    {
        OFFSET   0.000000   0.093605   0.000000
        CHANNELS 3 Xrotation Yrotation Zrotation
        JOINT lowerback_torso
        {
            OFFSET   0.000000   0.100000   0.000000
            CHANNELS 3 Xrotation Yrotation Zrotation
            JOINT torso_head
            {
                OFFSET   0.000000   0.282350   0.000000
                CHANNELS 3 Xrotation Yrotation Zrotation
                End Site
                {
                    OFFSET   0.000000   0.192650   0.000000
                }
            }
            JOINT rTorso_Clavicle
            {
                OFFSET  -0.001000   0.157500   0.000000
                CHANNELS 3 Xrotation Yrotation Zrotation
                JOINT rShoulder
                {
                    OFFSET  -0.117647   0.000000   0.000000
                    CHANNELS 3 Xrotation Yrotation Zrotation
                    JOINT rElbow
                    {
                        OFFSET  -0.245000   0.000000   0.000000
                        CHANNELS 3 Xrotation Yrotation Zrotation
                        JOINT rWrist
                        {
                            OFFSET  -0.240000   0.000000   0.000000
                            CHANNELS 3 Xrotation Yrotation Zrotation
                            End Site
                            {
                                OFFSET  -0.116353  -0.002500   0.000000
                            }
                        }
                    }
                }
            }
            JOINT lTorso_Clavicle
            {
                OFFSET   0.001000   0.157500   0.000000
                CHANNELS 3 Xrotation Yrotation Zrotation
                JOINT lShoulder
                {
                    OFFSET   0.117647   0.000000   0.000000
                    CHANNELS 3 Xrotation Yrotation Zrotation
                    JOINT lElbow
                    {
                        OFFSET   0.245000   0.000000   0.000000
                        CHANNELS 3 Xrotation Yrotation Zrotation
                        JOINT lWrist
                        {
                            OFFSET   0.240000   0.000000   0.000000
                            CHANNELS 3 Xrotation Yrotation Zrotation
                            End Site
                            {
                                OFFSET   0.116353  -0.002500   0.000000
                            }
                        }
                    }
                }
            }
        }
    }
    JOINT rHip
    {
        OFFSET  -0.100000  -0.051395   0.000000
        CHANNELS 3 Xrotation Yrotation Zrotation
        JOINT rKnee
        {
            OFFSET   0.000000  -0.410000   0.000000
            CHANNELS 3 Xrotation Yrotation Zrotation
            JOINT rAnkle
            {
                OFFSET   0.000000  -0.390000   0.000000
                CHANNELS 3 Xrotation Yrotation Zrotation
                JOINT rToeJoint
                {
                    OFFSET   0.000000  -0.050000   0.130000
                    CHANNELS 3 Xrotation Yrotation Zrotation
                    End Site
                    {
                        OFFSET  -0.010000   0.002000   0.060000
                    }
                }
            }
        }
    }
    JOINT lHip
    {
        OFFSET   0.100000  -0.051395   0.000000
        CHANNELS 3 Xrotation Yrotation Zrotation
        JOINT lKnee
        {
            OFFSET   0.000000  -0.410000   0.000000
            CHANNELS 3 Xrotation Yrotation Zrotation
            JOINT lAnkle
            {
                OFFSET   0.000000  -0.390000   0.000000
                CHANNELS 3 Xrotation Yrotation Zrotation
                JOINT lToeJoint
                {
                    OFFSET   0.000000  -0.050000   0.130000
                    CHANNELS 3 Xrotation Yrotation Zrotation
                    End Site
                    {
                        OFFSET   0.010000   0.002000   0.060000
                    }
                }
            }
        }
    }
}
MOTION
Frames: 14
Frame Time:   0.008333
 -1.424865   0.914636   5.203810 -177.932559  64.834034 178.894702   3.274817   7.974687  -3.021299   5.357918   5.347879  -1.394431  -0.439790   0.328656  -0.581433   2.248604   6.806292   4.203728   1.857782  19.531801  53.066832  -0.000585  27.162914  -0.000389   2.650216   1.795305   0.743033   2.909234   4.617075  -6.676053   4.832700   1.755943 -53.245138  -0.000018 -17.112240   0.003820  -1.774310  -1.173593   3.568372   5.060135  -8.292451  -7.646197  34.845443   0.004677   0.009719  -3.752149 -11.014891   2.419355 -13.232489   0.000039   0.043616   1.827399  -1.971310   0.035728   9.762055  -0.000404  -0.000849 -11.246510  -1.264173   4.743122   0.457393  -0.000005   0.000000
 -1.423389   0.914794   5.203420 -178.201339  64.759087 179.053932   3.396921   7.678271  -2.774072   5.250108   5.200884  -1.195802  -0.521715   0.472860  -0.574175   2.253690   6.810274   4.418072   1.856291  19.363727  52.869220  -0.000424  27.186245  -0.000203   2.647721   1.838967   0.716371   2.856900   4.216235  -6.829051   4.972351   1.417112 -53.418404   0.000129 -17.246360   0.004250  -1.689729  -1.157221   3.605647   4.399085  -7.726519  -7.416921  34.275575   0.002979   0.004917  -5.277381 -10.605111   2.186512 -12.354458  -0.002418   0.042867   1.929601  -2.007620   0.160535   9.511490  -0.000267  -0.000773 -11.196701  -1.300545   4.644913   0.441716  -0.000013   0.000000
 -1.422047   0.914937   5.203202 -178.489772  64.736754 179.236473   3.557998   7.390391  -2.548814   5.147760   5.050150  -1.004511  -0.600876   0.609977  -0.563269   2.243468   6.826089   4.618338   1.842068  19.212519  52.681016  -0.000289  27.212325  -0.000042   2.643532   1.904207   0.662304   2.783796   3.811121  -6.986450   5.082644   1.080419 -53.599440   0.000279 -17.380084   0.004649  -1.599591  -1.160427   3.591498   3.679996  -7.173808  -7.193890  33.557867   0.001770   0.000642  -6.709020 -10.211410   1.980874 -11.558727  -0.004482   0.040965   2.007032  -2.017681   0.281491   9.276308  -0.000143  -0.000653 -11.149324  -1.309878   4.553974   0.428529  -0.000017   0.000000
 -1.420732   0.915040   5.203098 -178.732896  64.739115 179.392565   3.749015   7.101938  -2.345778   5.072375   4.892714  -0.826249  -0.669591   0.737409  -0.551190   2.228443   6.846540   4.805763   1.823401  19.074670  52.505839  -0.000181  27.238647   0.000088   2.639278   1.978591   0.603883   2.696708   3.413804  -7.140397   5.169136   0.752895 -53.774588   0.000409 -17.511875   0.004973  -1.510430  -1.195043   3.552974   2.930113  -6.652423  -6.986441  32.825384   0.001083  -0.002559  -8.044862  -9.838507   1.799208 -10.828800  -0.006033   0.038400   2.095088  -2.015580   0.390764   9.055939  -0.000038  -0.000530 -11.110547  -1.305960   4.467722   0.417300  -0.000018   0.000000
 -1.419379   0.915098   5.203077 -178.920709  64.750907 179.513094   3.956713   6.813457  -2.161825   5.022753   4.728633  -0.660534  -0.728506   0.855637  -0.539197   2.216592   6.864470   4.982568   1.807319  18.945260  52.343921  -0.000098  27.262620   0.000180   2.635215   2.049389   0.550205   2.602810   3.030672  -7.287113   5.238708   0.438730 -53.939628   0.000509 -17.639502   0.005187  -1.422901  -1.252453   3.505356   2.171114  -6.163647  -6.789690  32.111424   0.000763  -0.004838  -9.290246  -9.486409   1.638432 -10.159676  -0.007109   0.035510   2.201133  -2.008727   0.489553   8.852413   0.000050  -0.000423 -11.084945  -1.296771   4.384224   0.407747  -0.000018   0.000000
 -1.417950   0.915111   5.203118 -179.056608  64.764802 179.600465   4.171103   6.527653  -1.994166   4.993579   4.559953  -0.506658  -0.779748   0.965403  -0.527846   2.211754   6.876299   5.149448   1.797355  18.821315  52.194491  -0.000041  27.282864   0.000235   2.631374   2.108066   0.504565   2.507026   2.665427  -7.425434   5.296387   0.140279 -54.093635   0.000577 -17.761496   0.005280  -1.337629  -1.323190   3.455392   1.416351  -5.706521  -6.600343  31.426566   0.000679  -0.006396 -10.451168  -9.154566   1.495921  -9.546718  -0.007788   0.032507   2.325914  -2.000686   0.578987   8.665599   0.000121  -0.000337 -11.074367  -1.286229   4.302588   0.399720  -0.000017   0.000000
 -1.416425   0.915078   5.203208 -179.147276  64.776894 179.660199   4.385318   6.247178  -1.840574   4.979644   4.389135  -0.364089  -0.825143   1.067401  -0.517330   2.214928   6.880887   5.306483   1.794566  18.701391  52.056328  -0.000003  27.298974   0.000258   2.627741   2.150788   0.467287   2.412459   2.319880  -7.555474   5.345589  -0.141445 -54.236978   0.000618 -17.877073   0.005259  -1.255058  -1.400408   3.405729   0.674334  -5.279683  -6.416693  30.774614   0.000740  -0.007402 -11.533409  -8.842255   1.369426  -8.985433  -0.008151   0.029523   2.468038  -1.993361   0.659790   8.494436   0.000177  -0.000270 -11.079136  -1.276470   4.222361   0.393133  -0.000015   0.000000
 -1.414940   0.915172   5.203463 -179.381731  64.744875 179.779686   4.588625   5.990019  -1.627684   4.890680   4.207416  -0.188239  -0.838397   1.182326  -0.504158   2.214325   6.865663   5.523398   1.786270  18.487712  51.833068   0.000141  27.414396   0.000799   2.620940   2.106871   0.449893   2.337860   1.914906  -7.674356   5.498904  -0.486454 -54.388352   0.000842 -18.094250   0.006396  -1.120005  -1.415316   3.321184   0.056474  -4.859381  -6.115440  29.521116   0.000983  -0.011015 -11.926073  -8.460832   1.323920  -8.446913  -0.008654   0.027552   2.449829  -1.950545   0.815145   8.497118   0.000141  -0.000214 -11.113328  -1.229219   4.114343   0.322967  -0.000041  -0.000068
 -1.413466   0.915294   5.203814 -179.626861  64.738889 179.914858   4.797825   5.760066  -1.423520   4.800400   4.039951  -0.011992  -0.850926   1.291726  -0.488944   2.198996   6.858778   5.720381   1.766702  18.292340  51.617316   0.000245  27.527488   0.001191   2.611739   2.087766   0.399486   2.257212   1.524299  -7.779903   5.632281  -0.817946 -54.531022   0.000965 -18.304175   0.007152  -0.982706  -1.466542   3.210718  -0.560001  -4.459014  -5.825701  28.238977   0.001502  -0.013553 -12.290032  -8.101962   1.285006  -7.906747  -0.009038   0.025684   2.414239  -1.896479   0.966487   8.519793   0.000102  -0.000159 -11.134210  -1.173443   4.022205   0.219277  -0.000059  -0.000147
 -1.411949   0.915418   5.204229 -179.849054  64.744619 -179.959756   5.008123   5.545551  -1.227847   4.720525   3.883643   0.158540  -0.860514   1.393887  -0.473344   2.176107   6.858498   5.900496   1.741143  18.113973  51.413167   0.000319  27.635947   0.001454   2.602760   2.085523   0.337667   2.175023   1.153719  -7.874249   5.750370  -1.131573 -54.660860   0.001006 -18.503066   0.007560  -0.849791  -1.534709   3.102977  -1.168038  -4.085863  -5.553092  27.013887   0.002114  -0.014967 -12.630571  -7.766633   1.250467  -7.411358  -0.009083   0.023627   2.387210  -1.844733   1.111263   8.547149   0.000067  -0.000115 -11.146418  -1.120220   3.939026   0.095124  -0.000064  -0.000211
 -1.410355   0.915535   5.204695 179.955867  64.751344 -179.847109   5.213562   5.343139  -1.040188   4.650900   3.735863   0.322510  -0.867670   1.489010  -0.458012   2.151221   6.860425   6.067054   1.714155  17.949123  51.221449   0.000370  27.738444   0.001610   2.594147   2.091630   0.272873   2.094844   0.804971  -7.959088   5.857259  -1.426183 -54.778546   0.000988 -18.690006   0.007679  -0.721827  -1.608616   3.003758  -1.758092  -3.739441  -5.296023  25.860938   0.002695  -0.015580 -12.948641  -7.453545   1.219653  -6.958807  -0.008874   0.021524   2.372536  -1.797451   1.248962   8.578587   0.000036  -0.000079 -11.153328  -1.071707   3.862327  -0.046200  -0.000057  -0.000261
 -1.408669   0.915642   5.205202 179.785292  64.752547 -179.744573   5.410194   5.151830  -0.860294   4.589408   3.595517   0.479575  -0.873380   1.577569  -0.443193   2.127491   6.862005   6.221932   1.688381  17.795338  51.042120   0.000404  27.834318   0.001682   2.585874   2.099969   0.208862   2.018543   0.478391  -8.036001   5.955494  -1.701811 -54.885555   0.000931 -18.864947   0.007573  -0.598972  -1.682602   2.913050  -2.324260  -3.418141  -5.053098  24.781274   0.003186  -0.015659 -13.245559  -7.161281   1.192065  -6.545556  -0.008495   0.019471   2.369573  -1.754338   1.379214   8.614302   0.000007  -0.000048 -11.156388  -1.027845   3.791215  -0.203419  -0.000038  -0.000307
 -1.406882   0.915737   5.205749 179.635140  64.744175 -179.648472   5.595733   4.971268  -0.687996   4.534008   3.462228   0.629497  -0.878382   1.660052  -0.428977   2.106303   6.862116   6.366262   1.665004  17.651090  50.874674   0.000424  27.923468   0.001688   2.577917   2.107100   0.147315   1.946982   0.173493  -8.106344   6.046664  -1.959089 -54.983339   0.000849 -19.028255   0.007298  -0.481221  -1.753933   2.829655  -2.863208  -3.120267  -4.823303  23.772615   0.003568  -0.015395 -13.522674  -6.888481   1.167293  -6.168219  -0.008011   0.017524   2.376674  -1.714869   1.501987   8.654069  -0.000020  -0.000019 -11.156189  -0.988282   3.725231  -0.375440  -0.000007  -0.000354
 -1.404943   0.915869   5.206157 179.739611  64.584560 -179.703180   5.804432   4.735351  -0.560483   4.573004   3.303362   0.781028  -0.819672   1.685139  -0.429575   2.069819   6.824863   6.564267   1.549322  17.311837  50.648777   0.000327  28.067690   0.002172   2.555199   2.130445   0.107689   1.897848  -0.128946  -8.152440   6.195590  -2.240215 -55.082492   0.000881 -19.385971   0.008540  -0.355899  -1.792557   2.751499  -3.183942  -2.995094  -4.692547  22.717596   0.003860  -0.015106 -13.133880  -6.630947   1.146866  -5.729645  -0.007447   0.016121   2.362088  -1.650981   1.522724   8.936974  -0.000066   0.000559 -11.104630  -0.876817   3.600771  -0.798192  -0.000226  -0.001454
